<svg width="108" height="22" viewBox="0 0 108 22" fill="none" xmlns="http://www.w3.org/2000/svg">
<path d="M34.5223 0.628691C34.0606 0.313323 33.477 0.15564 32.7716 0.15564C31.907 0.15564 31.1112 0.356328 30.3861 0.75361C30.2446 1.6137 30.0796 2.48814 29.887 3.381C29.6964 4.27181 29.4901 5.16262 29.27 6.05548C29.048 6.94629 28.822 7.81253 28.5901 8.6501C28.3583 9.48767 28.1225 10.2638 27.8808 10.9765H27.7589L25.3754 2.32636C25.1534 1.48674 24.8115 0.91539 24.3478 0.612309C23.886 0.30718 23.3024 0.15564 22.597 0.15564C22.033 0.15564 21.5143 0.266223 21.0427 0.48739C20.5692 0.70651 20.1919 0.964538 19.9109 1.25738C20.2331 2.6622 20.5397 3.90524 20.8325 4.98446C21.1233 6.06572 21.4062 7.02411 21.6774 7.86373C21.9486 8.7013 22.2119 9.44671 22.4634 10.0959C22.7149 10.745 22.9507 11.3328 23.1727 11.857C23.6345 12.9281 24.0629 13.6571 24.4558 14.0441C24.8488 14.4312 25.2163 14.679 25.5582 14.7834C25.0335 15.4551 24.45 16.1104 23.8074 16.7493C23.1649 17.3883 22.5204 17.9719 21.8759 18.4961C21.9761 19.3358 22.2865 20.0177 22.8112 20.5419C23.3339 21.0662 24.0196 21.3283 24.8646 21.3283C25.3479 21.3283 25.8097 21.2607 26.2518 21.1235C26.6939 20.9863 27.138 20.7344 27.5801 20.3679C28.0223 20.0013 28.486 19.4934 28.9694 18.8443C29.4527 18.1951 29.9754 17.3555 30.5394 16.3275C30.8813 15.7193 31.233 15.0312 31.5965 14.2673C31.9581 13.5014 32.3118 12.6905 32.6537 11.8304C32.9956 10.9703 33.3218 10.0938 33.6342 9.20302C33.9466 8.31221 34.2178 7.44802 34.4496 6.6084C34.6815 5.76878 34.8682 4.97831 35.0097 4.2329C35.1511 3.48953 35.2219 2.83422 35.2219 2.26697C35.2179 1.48879 34.9861 0.944059 34.5223 0.628691Z" fill="#4D31D7"/>
<path d="M51.983 2.21782C51.2874 1.51541 50.4581 0.970679 49.4934 0.581588C48.5286 0.194545 47.4518 0 46.263 0C45.0761 0 43.9993 0.188402 43.0345 0.567253C42.0697 0.944057 41.2385 1.48469 40.5449 2.1871C39.8493 2.88951 39.3109 3.74346 38.9297 4.751C38.5485 5.75649 38.3579 6.87871 38.3579 8.11561C38.3579 9.37503 38.5485 10.5075 38.9297 11.515C39.3129 12.5205 39.8513 13.3765 40.5449 14.0789C41.2385 14.7813 42.0697 15.322 43.0345 15.6988C43.9993 16.0756 45.0761 16.264 46.263 16.264C47.4518 16.264 48.5286 16.0858 49.4934 15.7295C50.4581 15.3732 51.2893 14.8489 51.983 14.1588C52.6766 13.4666 53.215 12.6127 53.5982 11.5949C53.9813 10.5771 54.1719 9.41804 54.1719 8.11766C54.1719 6.90124 53.9794 5.79131 53.5982 4.78377C53.217 3.77418 52.6786 2.92023 51.983 2.21782ZM48.2397 11.042C47.7878 11.7342 47.1374 12.0782 46.2924 12.0782C45.4475 12.0782 44.7873 11.7382 44.3157 11.0563C43.8441 10.3744 43.6083 9.39551 43.6083 8.11561C43.6083 6.85823 43.8402 5.88755 44.3019 5.20562C44.7637 4.52369 45.418 4.18375 46.263 4.18375C47.1079 4.18375 47.7622 4.52369 48.2259 5.20562C48.6877 5.88755 48.9196 6.85618 48.9196 8.11561C48.9196 9.37299 48.6936 10.3498 48.2397 11.042Z" fill="#4D31D7"/>
<path d="M67.6026 0.614364C67.0386 0.227321 66.2743 0.0327759 65.3095 0.0327759C64.7259 0.0327759 64.1423 0.0798768 63.5587 0.174078C62.9751 0.268279 62.4111 0.39934 61.8688 0.567264C61.3265 0.735187 60.8176 0.927684 60.344 1.14885C59.8705 1.36797 59.4735 1.61576 59.1513 1.88812C58.829 2.16049 58.5814 2.46971 58.4105 2.8158C58.2395 3.16188 58.1531 3.57555 58.1531 4.05884V13.4974C58.1531 14.0216 58.2179 14.4455 58.3476 14.7711C58.4793 15.0967 58.6659 15.3527 58.9076 15.5411C59.1493 15.7295 59.446 15.8544 59.7977 15.9179C60.1495 15.9814 60.5484 16.0142 60.9905 16.0142C61.4542 16.0142 61.9022 15.9814 62.3345 15.9179C62.7668 15.8544 63.0851 15.793 63.2856 15.7295V5.00085C63.5469 4.87593 63.8633 4.76535 64.2346 4.67115C64.606 4.57694 65.0049 4.48889 65.4274 4.40288C65.8498 4.31892 66.2841 4.25543 66.7262 4.21448C67.1683 4.17147 67.6026 4.15099 68.025 4.15099C68.1449 3.91959 68.2451 3.66361 68.3257 3.381C68.4062 3.0984 68.4475 2.80965 68.4475 2.51476C68.4495 1.63624 68.1665 1.00141 67.6026 0.614364Z" fill="#4D31D7"/>
<path d="M84.1279 1.88811C83.4952 1.30038 82.7406 0.839616 81.8643 0.50377C80.9899 0.167923 80.0172 0 78.9522 0C78.0051 0 77.0796 0.153588 76.1757 0.456669C75.2699 0.75975 74.4662 1.2328 73.7608 1.87173C73.0553 2.51066 72.4875 3.32775 72.0552 4.32505C71.6229 5.3203 71.4067 6.51215 71.4067 7.89444C71.4067 9.29926 71.6229 10.5259 72.0552 11.5744C72.4875 12.6229 73.0829 13.4933 73.8374 14.1854C74.5919 14.8776 75.4781 15.3957 76.494 15.7418C77.5099 16.0879 78.6123 16.2599 79.7991 16.2599C80.5026 16.2599 81.2571 16.1964 82.0627 16.0715C82.8684 15.9466 83.5934 15.7049 84.236 15.3486C85.0809 14.8878 85.5034 14.1854 85.5034 13.2414C85.5034 12.8216 85.3933 12.4243 85.1713 12.0454C84.9493 11.6686 84.6781 11.3737 84.3558 11.1649C83.8921 11.4577 83.2928 11.7157 82.5599 11.9369C81.825 12.156 81.0468 12.2666 80.2216 12.2666C79.3354 12.2666 78.5513 12.0925 77.8675 11.7464C77.1837 11.4004 76.7318 10.8802 76.5097 10.188L83.9648 9.02485C84.6486 8.92041 85.1811 8.67877 85.5623 8.30196C85.9455 7.92516 86.1361 7.37839 86.1361 6.66574C86.1361 5.7012 85.9593 4.81039 85.6075 3.9933C85.2558 3.17826 84.7626 2.47584 84.1279 1.88811ZM76.1443 6.66778C76.1639 6.33194 76.2307 6.00223 76.3408 5.67867C76.4508 5.35307 76.6178 5.06023 76.8399 4.7981C77.0619 4.53598 77.3468 4.32095 77.7005 4.15303C78.0522 3.98511 78.4708 3.90114 78.9542 3.90114C79.6989 3.90114 80.2609 4.11207 80.644 4.53188C81.0272 4.95169 81.2473 5.36945 81.3082 5.78926L76.1443 6.66778Z" fill="#4D31D7"/>
<path d="M12.0688 1.42737C11.8271 1.23897 11.5304 1.112 11.1767 1.04852C10.825 0.985036 10.4281 0.952271 9.98594 0.952271C9.54382 0.952271 9.10563 0.989132 8.67138 1.06285C8.23908 1.13658 7.9129 1.19392 7.69086 1.23692V8.75661H2.61536C1.19666 8.75661 0 9.96279 0 11.4557C0 12.9485 1.19666 14.1568 2.61536 14.1568H7.69282V19.4832C7.69282 20.0075 7.75767 20.4314 7.88932 20.757C8.02097 21.0826 8.20568 21.3386 8.44737 21.527C8.68906 21.7154 8.98577 21.8403 9.3375 21.9038C9.68923 21.9673 10.0881 22 10.5302 22C10.9723 22 11.4086 21.9632 11.8409 21.8894C12.2732 21.8157 12.6013 21.7584 12.8233 21.7154V15.3466C12.0197 15.2258 11.2691 14.8428 10.6894 14.2387C9.98201 13.4994 9.58312 12.5001 9.58312 11.4557C9.58312 10.4113 9.98201 9.40987 10.6894 8.67265C11.2691 8.06853 12.0216 7.68559 12.8233 7.56476V3.47112C12.8233 2.94687 12.7585 2.52297 12.6268 2.19736C12.4972 1.87175 12.3125 1.61577 12.0688 1.42737Z" fill="#4D31D7"/>
<path d="M18.4333 8.67877H13.4089C11.9391 8.67877 10.7463 9.91772 10.7463 11.4495C10.7463 12.9792 11.9391 14.2202 13.4089 14.2202H18.4333C19.9031 14.2202 21.0958 12.9792 21.0958 11.4495C21.0958 9.91977 19.905 8.67877 18.4333 8.67877Z" fill="#00AB55"/>
<rect x="88" y="8" width="19.3" height="7.65" rx="3.825" fill="#00AB55"/>
<path d="M92.9062 12.8281C92.8197 12.869 92.7234 12.91 92.6114 12.9468C92.5014 12.9837 92.3697 13.0021 92.2204 13.0021C91.963 13.0021 91.7449 12.9223 91.5661 12.7584C91.3892 12.5946 91.2988 12.3509 91.2988 12.0274C91.2988 11.8656 91.3244 11.7243 91.3735 11.6035C91.4246 11.4826 91.4914 11.3802 91.5739 11.3004C91.6565 11.2205 91.7547 11.1591 91.8687 11.1161C91.9826 11.0731 92.1025 11.0526 92.2283 11.0526C92.3697 11.0526 92.4994 11.0731 92.6193 11.112C92.7392 11.1509 92.8433 11.1918 92.9278 11.2328C92.9887 11.1693 93.0398 11.0956 93.085 11.0096C93.1302 10.9236 93.1538 10.8294 93.1538 10.7311C93.1538 10.5161 93.0555 10.3399 92.859 10.2048C92.6645 10.0676 92.3855 10 92.0219 10C91.7508 10 91.4914 10.043 91.2478 10.127C91.0041 10.2109 90.788 10.3379 90.6032 10.5058C90.4166 10.6737 90.2712 10.8867 90.1611 11.1468C90.0531 11.4069 90 11.7079 90 12.054C90 12.353 90.0511 12.6253 90.1513 12.8711C90.2515 13.1168 90.393 13.3277 90.5777 13.5039C90.7604 13.68 90.9805 13.8151 91.2379 13.9114C91.4953 14.0076 91.7822 14.0568 92.0986 14.0568C92.4444 14.0568 92.7175 13.9974 92.914 13.8807C93.1105 13.7619 93.2088 13.596 93.2088 13.3789C93.2088 13.2581 93.1832 13.1557 93.1321 13.0697C93.083 12.9817 93.0064 12.9018 92.9062 12.8281Z" fill="white"/>
<path d="M97.0445 10.3502C96.8853 10.2314 96.6947 10.1434 96.4707 10.086C96.2467 10.0287 95.9991 10 95.7299 10C95.5531 10 95.3644 10.0123 95.166 10.0389C94.9675 10.0655 94.7966 10.1065 94.6492 10.1659C94.5195 10.2232 94.4232 10.2928 94.3584 10.3748C94.2955 10.4567 94.2641 10.5652 94.2641 10.7004C94.2641 10.8069 94.2857 10.9072 94.3309 11.0034C94.3761 11.0997 94.433 11.1714 94.4979 11.2185C94.6433 11.155 94.8064 11.1038 94.9872 11.0628C95.1679 11.0198 95.3546 10.9993 95.5452 10.9993C95.7869 10.9993 95.9716 11.0321 96.1013 11.0976C96.229 11.1632 96.2939 11.2717 96.2939 11.4233V11.4785L95.3055 11.5871C94.8712 11.6342 94.5529 11.755 94.3466 11.9495C94.1403 12.1441 94.0381 12.4206 94.0381 12.781C94.0381 12.996 94.0794 13.1844 94.1619 13.3482C94.2444 13.51 94.3643 13.6431 94.5175 13.7496C94.6708 13.854 94.8535 13.9319 95.0677 13.9851C95.2819 14.0384 95.5216 14.065 95.7869 14.065C96.3803 14.065 96.8401 13.9626 97.1663 13.7578C97.2665 13.6943 97.3549 13.6206 97.4276 13.5346C97.5003 13.4486 97.5377 13.3359 97.5377 13.1987V11.4396C97.5377 11.1918 97.4945 10.9789 97.41 10.7987C97.3235 10.6164 97.2017 10.4669 97.0445 10.3502ZM96.3017 12.9878C96.2506 13.0185 96.174 13.0431 96.0718 13.0615C95.9696 13.08 95.8753 13.0882 95.7889 13.0882C95.6022 13.0882 95.4705 13.0554 95.3919 12.9899C95.3133 12.9243 95.276 12.8383 95.276 12.7339C95.276 12.6294 95.3212 12.5496 95.4116 12.4984C95.502 12.4451 95.6179 12.4144 95.7574 12.4021L96.3017 12.355V12.9878Z" fill="white"/>
<path d="M101.053 10.1454C100.911 10.0491 100.721 10 100.479 10C100.334 10 100.188 10.0123 100.043 10.0369C99.8974 10.0594 99.7559 10.0922 99.6203 10.1352C99.4848 10.1761 99.357 10.2253 99.2391 10.2806C99.1212 10.3358 99.023 10.3973 98.9424 10.4649C98.8619 10.5324 98.8009 10.6103 98.7577 10.6963C98.7145 10.7823 98.6929 10.8867 98.6929 11.0055V13.3646C98.6929 13.4957 98.7086 13.6022 98.742 13.6841C98.7754 13.766 98.8206 13.8295 98.8815 13.8766C98.9424 13.9237 99.0151 13.9544 99.1036 13.9687C99.192 13.9851 99.2922 13.9933 99.4022 13.9933C99.5182 13.9933 99.6302 13.9851 99.7382 13.9687C99.8463 13.9544 99.9269 13.938 99.976 13.9237V11.241C100.043 11.2103 100.121 11.1816 100.214 11.1591C100.306 11.1366 100.406 11.114 100.512 11.0915C100.619 11.071 100.727 11.0546 100.837 11.0444C100.947 11.0342 101.055 11.0301 101.161 11.0301C101.19 10.9727 101.216 10.9072 101.238 10.8376C101.257 10.7679 101.269 10.6942 101.269 10.6205C101.265 10.4014 101.194 10.2416 101.053 10.1454Z" fill="white"/>
<path d="M105.183 10.4731C105.024 10.3256 104.835 10.2109 104.617 10.127C104.399 10.043 104.156 10 103.89 10C103.653 10 103.421 10.0389 103.195 10.1147C102.969 10.1904 102.766 10.3092 102.591 10.469C102.415 10.6287 102.273 10.8335 102.165 11.0833C102.057 11.3331 102.004 11.6301 102.004 11.9762C102.004 12.3284 102.057 12.6335 102.165 12.8957C102.273 13.1578 102.422 13.3748 102.611 13.5469C102.8 13.7209 103.02 13.8499 103.273 13.938C103.527 14.024 103.804 14.067 104.101 14.067C104.275 14.067 104.464 14.0506 104.666 14.0199C104.867 13.9892 105.048 13.9278 105.211 13.8397C105.421 13.725 105.527 13.5489 105.527 13.3134C105.527 13.209 105.5 13.1086 105.445 13.0144C105.39 12.9202 105.321 12.8465 105.24 12.7933C105.124 12.867 104.975 12.9305 104.792 12.9858C104.609 13.0411 104.413 13.0677 104.209 13.0677C103.987 13.0677 103.79 13.0247 103.619 12.9387C103.448 12.8526 103.334 12.7236 103.279 12.5496L105.142 12.2588C105.313 12.2322 105.447 12.1728 105.541 12.0786C105.637 11.9844 105.684 11.8492 105.684 11.671C105.684 11.4294 105.639 11.2082 105.553 11.0034C105.464 10.7966 105.342 10.6205 105.183 10.4731ZM103.187 11.669C103.191 11.585 103.208 11.5031 103.234 11.4212C103.261 11.3413 103.305 11.2676 103.36 11.2C103.415 11.1345 103.487 11.0813 103.574 11.0383C103.662 10.9953 103.766 10.9748 103.888 10.9748C104.073 10.9748 104.214 11.028 104.309 11.1325C104.405 11.2369 104.46 11.3413 104.476 11.4458L103.187 11.669Z" fill="white"/>
</svg>
